<?xml version="1.0" standalone="no"?><!DOCTYPE svg PUBLIC "-//W3C//DTD SVG 1.1//EN" "http://www.w3.org/Graphics/SVG/1.1/DTD/svg11.dtd"><svg t="1698457709230" class="icon" viewBox="0 0 1024 1024" version="1.1" xmlns="http://www.w3.org/2000/svg" p-id="7224" xmlns:xlink="http://www.w3.org/1999/xlink" width="64" height="64"><path d="M512 512m-450.56 0a450.56 450.56 0 1 0 901.12 0 450.56 450.56 0 1 0-901.12 0Z" fill="#ffffff" p-id="7225" data-spm-anchor-id="a313x.search_index.0.i10.36a13a81HhSjYj" class="selected"></path><path d="M276.48 512m-71.68 0a71.68 71.68 0 1 0 143.36 0 71.68 71.68 0 1 0-143.36 0Z" fill="#515151" p-id="7226" data-spm-anchor-id="a313x.search_index.0.i9.36a13a81HhSjYj" class=""></path><path d="M512 512m-71.68 0a71.68 71.68 0 1 0 143.36 0 71.68 71.68 0 1 0-143.36 0Z" fill="#515151" p-id="7227" data-spm-anchor-id="a313x.search_index.0.i7.36a13a81HhSjYj" class=""></path><path d="M747.52 512m-71.68 0a71.68 71.68 0 1 0 143.36 0 71.68 71.68 0 1 0-143.36 0Z" fill="#515151" p-id="7228" data-spm-anchor-id="a313x.search_index.0.i8.36a13a81HhSjYj" class=""></path><path d="M880.64 737.28l39.1168 117.3504a40.96 40.96 0 0 1-46.8992 53.10464L737.28 880.59904 880.64 737.28z" fill="#ffffff" p-id="7229" data-spm-anchor-id="a313x.search_index.0.i11.36a13a81HhSjYj" class="selected"></path></svg>