<?xml version="1.0" standalone="no"?><!DOCTYPE svg PUBLIC "-//W3C//DTD SVG 1.1//EN" "http://www.w3.org/Graphics/SVG/1.1/DTD/svg11.dtd"><svg t="1698893559728" class="icon" viewBox="0 0 1024 1024" version="1.1" xmlns="http://www.w3.org/2000/svg" p-id="4163" xmlns:xlink="http://www.w3.org/1999/xlink" width="200" height="200"><path d="M327.804373 450.601628c-33.907251 0-61.398372 27.491121-61.398372 61.398372s27.491121 61.398372 61.398372 61.398372 61.398372-27.491121 61.398372-61.398372S361.711624 450.601628 327.804373 450.601628zM696.194604 450.601628c-33.907251 0-61.398372 27.491121-61.398372 61.398372s27.491121 61.398372 61.398372 61.398372 61.398372-27.491121 61.398372-61.398372S730.101855 450.601628 696.194604 450.601628zM511.999488 450.601628c-33.907251 0-61.398372 27.491121-61.398372 61.398372s27.491121 61.398372 61.398372 61.398372 61.398372-27.491121 61.398372-61.398372S545.906739 450.601628 511.999488 450.601628z" fill="#2c2c2c" p-id="4164"></path></svg>