<?xml version="1.0" standalone="no"?><!DOCTYPE svg PUBLIC "-//W3C//DTD SVG 1.1//EN" "http://www.w3.org/Graphics/SVG/1.1/DTD/svg11.dtd"><svg t="1698367782617" class="icon" viewBox="0 0 1024 1024" version="1.1" xmlns="http://www.w3.org/2000/svg" p-id="31942" data-spm-anchor-id="a313x.search_index.0.i85.67d83a813LRgPr" xmlns:xlink="http://www.w3.org/1999/xlink" width="64" height="64"><path d="M935.69536 345.01632l-388.096-236.032a45.14816 45.14816 0 0 0-46.13632-0.512l-407.18848 236.032a45.35808 45.35808 0 0 0 0 78.4384l113.94048 66.048v290.95424a45.70624 45.70624 0 0 0 4.73088 20.18304c13.50144 27.2896 74.99264 116.3264 299.52 116.3264 227.328 0 287.13984-89.77408 300.0576-117.2992a45.3376 45.3376 0 0 0 4.20864-19.09248V494.81728l118.94272-72.33536a45.35808 45.35808 0 0 0 0.02048-77.4656zM753.152 775.48032c-9.89696 16.59392-58.57792 77.312-240.70144 77.312-180.38272 0-230.4-60.9792-240.70144-77.58336v-249.344l229.68832 133.12a45.17376 45.17376 0 0 0 46.1056-0.512L753.152 533.504v242.00192z m-229.28384-177.05472L153.52832 383.74912l370.34496-214.67648 352.9984 214.67648z" fill="#1296db" p-id="31943" data-spm-anchor-id="a313x.search_index.0.i86.67d83a813LRgPr" class=""></path><path d="M923.38688 805.62688a31.9488 31.9488 0 0 1-32-31.8976v-220.5184a32.00512 32.00512 0 0 1 64 0v220.5184a31.9488 31.9488 0 0 1-32 31.8976z" fill="#d4237a" p-id="31944" data-spm-anchor-id="a313x.search_index.0.i87.67d83a813LRgPr" class="selected"></path></svg>