<?xml version="1.0" standalone="no"?><!DOCTYPE svg PUBLIC "-//W3C//DTD SVG 1.1//EN" "http://www.w3.org/Graphics/SVG/1.1/DTD/svg11.dtd"><svg t="1698368420557" class="icon" viewBox="0 0 1024 1024" version="1.1" xmlns="http://www.w3.org/2000/svg" p-id="8984" data-spm-anchor-id="a313x.search_index.0.i15.3c563a81K4AZAF" xmlns:xlink="http://www.w3.org/1999/xlink" width="64" height="64"><path d="M839.111111 611.555556a26.88 26.88 0 0 0-19.2-8.106667h-41.244444a26.737778 26.737778 0 1 0 0 53.333333h12.942222l-7.822222 234.382222a22.044444 22.044444 0 0 1-22.186667 21.333334H607.857778a22.186667 22.186667 0 0 1-22.328889-21.333334l-7.822222-234.382222h106.951111A26.737778 26.737778 0 0 0 711.111111 629.475556V283.306667a26.453333 26.453333 0 0 0 23.324445-26.311111v-108.8a35.413333 35.413333 0 0 0-56.888889-28.444445 109.084444 109.084444 0 0 0-42.666667 86.613333v50.488889a26.453333 26.453333 0 0 0 23.466667 26.311111v319.715556h-108.231111a26.453333 26.453333 0 0 0-26.595556 27.591111l8.817778 261.831111a68.551111 68.551111 0 0 0 3.555555 19.626667h-270.222222a44.515556 44.515556 0 0 1-44.515555-42.666667l-14.222223-307.911111a44.657778 44.657778 0 0 1 44.515556-46.364444h298.666667a26.737778 26.737778 0 0 0 0-53.333334h-45.084445v-199.111111a26.595556 26.595556 0 0 0-26.595555-26.595555H324.266667a26.595556 26.595556 0 0 0-26.595556 26.595555v199.111111h-45.511111a97.706667 97.706667 0 0 0-97.706667 102.115556l14.222223 307.768889a97.564444 97.564444 0 0 0 97.706666 93.44h495.217778a75.235556 75.235556 0 0 0 75.52-72.96l8.817778-261.831111A26.88 26.88 0 0 0 839.111111 611.555556zM351.004444 288.995556h100.693334v172.942222h-100.693334z" fill="#1296db" p-id="8985" data-spm-anchor-id="a313x.search_index.0.i13.3c563a81K4AZAF" class="selected"></path><path d="M461.368889 783.644444a217.457778 217.457778 0 0 1-119.893333 0 42.666667 42.666667 0 0 1-29.866667-37.831111l-9.102222-111.217777a26.737778 26.737778 0 1 0-53.191111 4.266666l9.102222 111.36a95.715556 95.715556 0 0 0 68.551111 85.333334 268.657778 268.657778 0 0 0 148.906667 0 26.595556 26.595556 0 0 0-14.222223-51.2zM712.96 828.302222h-56.888889a26.737778 26.737778 0 0 0 0 53.333334h56.888889a26.737778 26.737778 0 1 0 0-53.333334z" fill="#d4237a" p-id="8986" data-spm-anchor-id="a313x.search_index.0.i14.3c563a81K4AZAF" class=""></path></svg>