<?xml version="1.0" standalone="no"?><!DOCTYPE svg PUBLIC "-//W3C//DTD SVG 1.1//EN" "http://www.w3.org/Graphics/SVG/1.1/DTD/svg11.dtd"><svg t="1698367034707" class="icon" viewBox="0 0 1024 1024" version="1.1" xmlns="http://www.w3.org/2000/svg" p-id="22795" xmlns:xlink="http://www.w3.org/1999/xlink" width="64" height="64"><path d="M803.7 771.28L495.87 517.7l298.3-264.58c-56.62-63.79-133.4-109.2-220.32-126.46-182.65 36.47-320.3 197.66-320.3 391.04 0 193.37 137.63 354.56 320.28 391.04 91.89-18.23 172.47-67.87 229.87-137.46z" fill="#727375" p-id="22796" data-spm-anchor-id="a313x.search_index.0.i49.67d83a813LRgPr" class="selected"></path><path d="M495.87 947.18c-238.01 0-431.66-193.65-431.66-431.66S257.86 83.87 495.87 83.87c123.23 0 240.9 52.95 322.85 145.26l21.82 24.57-294.13 260.89 303.53 250.06L829.03 790c-82.38 99.89-203.81 157.18-333.16 157.18z m0-797.62c-201.79 0-365.97 164.17-365.97 365.96s164.18 365.97 365.97 365.97c98.65 0 191.86-39.31 260.45-108.86L445.34 516.44l301.35-267.29c-67.63-63.65-157.34-99.59-250.82-99.59z" fill="#727375" p-id="22797" data-spm-anchor-id="a313x.search_index.0.i50.67d83a813LRgPr" class="selected"></path><path d="M853.56 515.52m-106.63 0a106.63 106.63 0 1 0 213.26 0 106.63 106.63 0 1 0-213.26 0Z" fill="#727375" p-id="22798" data-spm-anchor-id="a313x.search_index.0.i48.67d83a813LRgPr" class="selected"></path></svg>