<?xml version="1.0" standalone="no"?><!DOCTYPE svg PUBLIC "-//W3C//DTD SVG 1.1//EN" "http://www.w3.org/Graphics/SVG/1.1/DTD/svg11.dtd"><svg t="1698367826995" class="icon" viewBox="0 0 1024 1024" version="1.1" xmlns="http://www.w3.org/2000/svg" p-id="33571" xmlns:xlink="http://www.w3.org/1999/xlink" width="64" height="64"><path d="M715.776 985.088H334.848c-148.48 0-269.312-120.832-269.312-269.312s120.832-269.312 269.312-269.312h379.904c148.48 0 269.312 120.832 269.312 269.312S864.256 985.088 715.776 985.088zM334.848 491.52c-123.904 0-224.256 100.352-224.256 224.256 0 123.904 100.352 224.256 224.256 224.256h379.904c123.904 0 224.256-100.352 224.256-224.256C940.032 591.872 839.68 491.52 715.776 491.52H334.848z" fill="#727375" p-id="33572"></path><path d="M487.424 472.064c-13.312 0-23.552-10.24-23.552-23.552V288.768c0-52.224 45.056-95.232 99.328-95.232 55.296 0 99.328 43.008 99.328 95.232v25.6c0 21.504 19.456 38.912 43.008 38.912s43.008-17.408 43.008-38.912V128c0-13.312 10.24-23.552 23.552-23.552s23.552 10.24 23.552 23.552v186.368c0 47.104-39.936 86.016-90.112 86.016s-90.112-38.912-90.112-86.016v-25.6c0-26.624-23.552-48.128-52.224-48.128s-52.224 21.504-52.224 48.128v160.768c0 12.288-10.24 22.528-23.552 22.528zM330.752 892.928c-98.304 0-178.176-79.872-178.176-178.176 0-98.304 79.872-178.176 178.176-178.176s178.176 79.872 178.176 178.176c0 98.304-79.872 178.176-178.176 178.176z m0-313.344c-74.752 0-136.192 61.44-136.192 136.192s61.44 135.168 136.192 135.168c74.752 0 136.192-60.416 136.192-136.192s-61.44-135.168-136.192-135.168z" fill="#727375" p-id="33573"></path><path d="M828.416 671.744c-29.696 0-54.272-24.576-54.272-54.272S798.72 563.2 828.416 563.2s54.272 24.576 54.272 54.272-24.576 54.272-54.272 54.272z m0-65.536c-6.144 0-11.264 5.12-11.264 11.264s5.12 11.264 11.264 11.264 11.264-5.12 11.264-11.264-5.12-11.264-11.264-11.264z" fill="#727375" p-id="33574"></path><path d="M676.864 637.952m-32.768 0a32.768 32.768 0 1 0 65.536 0 32.768 32.768 0 1 0-65.536 0Z" fill="#727375" p-id="33575"></path><path d="M762.88 894.976c-57.344 0-104.448-47.104-104.448-104.448S705.536 686.08 762.88 686.08s104.448 47.104 104.448 104.448-46.08 104.448-104.448 104.448z m0-151.552c-25.6 0-46.08 20.48-46.08 46.08s20.48 46.08 46.08 46.08 46.08-20.48 46.08-46.08-20.48-46.08-46.08-46.08z" fill="#727375" p-id="33576"></path></svg>