<?xml version="1.0" standalone="no"?><!DOCTYPE svg PUBLIC "-//W3C//DTD SVG 1.1//EN" "http://www.w3.org/Graphics/SVG/1.1/DTD/svg11.dtd"><svg t="1698368497647" class="icon" viewBox="0 0 1024 1024" version="1.1" xmlns="http://www.w3.org/2000/svg" p-id="11000" data-spm-anchor-id="a313x.search_index.0.i22.3c563a81K4AZAF" xmlns:xlink="http://www.w3.org/1999/xlink" width="64" height="64"><path d="M509.44 103.936c226.816 0 410.624 183.808 410.624 410.624s-183.808 410.624-410.624 410.624-410.624-184.832-410.624-411.136 183.808-410.112 410.624-410.112zM624.64 203.264c-5.632-4.096-12.8-4.096-17.408 0l-86.528 62.464c-5.12 4.096-12.288 4.096-17.408 0.512L403.456 203.264c-5.632-3.072-12.8-3.072-17.408 0.512L276.992 284.672c-5.12 4.096-7.168 9.728-6.144 15.36l19.968 101.376c1.024 6.144-1.024 12.288-6.144 15.872L193.536 481.792c-5.632 4.096-7.68 10.24-6.144 16.384l44.544 179.2c1.536 7.168 8.192 11.776 15.36 11.776h115.712c6.656 0 12.8 4.608 14.848 10.24l40.448 118.784c2.048 6.656 8.192 10.24 14.848 10.24h157.184c7.168 0 13.312-5.12 14.848-11.776l31.232-116.736c1.536-6.656 7.68-11.776 14.848-11.776h125.952c7.168 0 13.824-5.12 15.36-12.288l40.448-179.2c1.024-6.144-1.024-12.288-6.144-15.872L737.28 416.768c-5.12-3.072-7.168-9.728-6.144-15.872l20.48-100.864c1.024-6.144-1.024-12.8-6.656-15.872L624.64 203.264z" fill="#1296db" p-id="11001" data-spm-anchor-id="a313x.search_index.0.i19.3c563a81K4AZAF" class=""></path><path d="M512 81.92c-237.568 0-430.08 192.512-430.08 430.08s192.512 430.08 430.08 430.08 430.08-192.512 430.08-430.08-192.512-430.08-430.08-430.08z m0 38.912c216.064 0 391.168 174.592 391.168 391.168s-174.592 391.168-391.168 391.168-391.168-175.104-391.168-391.168S295.936 120.832 512 120.832z" fill="#1296db" p-id="11002" data-spm-anchor-id="a313x.search_index.0.i21.3c563a81K4AZAF" class=""></path><path d="M511.488 375.296l130.048 94.72-49.664 152.576H431.104l-49.664-152.576 130.048-94.72z" fill="#d4237a" p-id="11003" data-spm-anchor-id="a313x.search_index.0.i20.3c563a81K4AZAF" class="selected"></path></svg>